<?xml version="1.0" standalone="no"?>
<!DOCTYPE svg PUBLIC "-//W3C//DTD SVG 20010904//EN"
 "http://www.w3.org/TR/2001/REC-SVG-20010904/DTD/svg10.dtd">
<svg version="1.0" xmlns="http://www.w3.org/2000/svg"
 width="328.000000pt" height="282.000000pt" viewBox="0 0 328.000000 282.000000"
 preserveAspectRatio="xMidYMid meet">

<g transform="translate(0.000000,282.000000) scale(0.100000,-0.100000)"
fill="#000000" stroke="none">
<path d="M3046 2697 c-20 -34 -36 -47 -73 -60 -62 -23 -141 -81 -153 -112 -5
-13 -18 -30 -30 -37 -11 -7 -20 -16 -20 -20 0 -3 -15 -33 -34 -65 -33 -55 -56
-140 -56 -206 0 -21 10 -39 36 -62 31 -29 34 -36 25 -54 -11 -19 -20 -21 -124
-21 -153 -1 -217 -30 -217 -100 0 -54 88 -120 160 -120 51 0 35 25 -28 43 -70
19 -114 51 -110 80 15 100 352 105 454 6 70 -68 49 -145 -71 -264 -118 -118
-295 -206 -442 -221 -62 -7 -66 -6 -91 22 -16 17 -25 37 -24 51 3 20 -1 23
-32 23 -25 0 -36 -4 -36 -15 0 -8 7 -15 16 -15 22 0 12 -24 -12 -28 -35 -6
-139 -59 -161 -84 -53 -57 -89 -188 -68 -253 4 -13 -1 -28 -12 -40 -10 -11
-19 -38 -21 -59 -2 -22 -10 -55 -18 -74 -10 -26 -12 -49 -4 -99 5 -35 14 -70
19 -77 8 -10 7 -25 -5 -57 -11 -32 -13 -60 -8 -104 4 -33 8 -76 9 -95 4 -48
20 -104 44 -154 11 -22 25 -55 31 -72 15 -41 86 -115 130 -135 19 -9 57 -27
85 -40 44 -21 62 -24 165 -23 63 1 134 7 158 13 98 27 182 102 167 151 -10 32
-51 25 -93 -15 -20 -19 -45 -35 -55 -35 -21 0 -128 63 -150 89 -83 92 -122
329 -132 793 -2 75 -6 142 -11 149 -4 7 -9 48 -11 92 -3 73 -2 79 14 72 62
-27 215 3 346 66 101 49 134 72 220 156 76 72 117 144 117 205 0 49 -51 107
-120 137 -51 22 -73 49 -24 31 109 -42 195 66 133 167 -38 61 -19 147 80 355
27 59 55 109 60 113 6 3 16 15 21 26 8 15 7 19 -4 19 -8 0 -26 -19 -40 -43z"/>
<path d="M1251 2052 c-22 -41 14 -82 53 -60 19 11 21 49 4 66 -18 18 -46 15
-57 -6z"/>
<path d="M1711 2056 c-7 -8 -11 -25 -9 -38 2 -18 9 -23 32 -23 36 0 56 27 40
53 -14 22 -48 27 -63 8z"/>
<path d="M843 1969 c-51 -15 -63 -42 -63 -139 0 -100 12 -124 68 -139 48 -13
111 1 135 30 13 17 17 40 17 111 0 81 -2 91 -25 113 -13 14 -32 25 -42 25 -10
0 -27 2 -38 4 -11 3 -34 0 -52 -5z m72 -139 c0 -84 0 -85 -25 -85 -24 0 -25 3
-28 74 -4 89 1 103 30 99 22 -3 23 -7 23 -88z"/>
<path d="M1445 1970 c-42 -16 -50 -38 -50 -137 0 -92 1 -95 29 -120 29 -25 60
-27 109 -8 13 5 17 2 17 -13 0 -35 -11 -52 -35 -52 -15 0 -26 8 -30 20 -5 15
-15 20 -41 20 -35 0 -35 -1 -32 -37 3 -36 5 -39 53 -50 35 -9 60 -10 87 -2 61
16 68 36 68 181 0 74 4 129 10 133 6 3 10 20 10 36 l0 30 -67 -3 c-38 -1 -77
1 -88 4 -11 4 -29 3 -40 -2z m86 -60 c16 -9 19 -22 19 -80 0 -66 -1 -70 -25
-76 -40 -10 -55 11 -55 77 0 39 5 63 16 73 18 19 20 19 45 6z"/>
<path d="M2232 1970 c-63 -14 -72 -32 -72 -140 0 -89 2 -98 24 -119 19 -18 36
-23 78 -23 74 -1 118 23 118 62 0 28 -2 30 -39 30 -30 0 -40 -4 -44 -20 -10
-40 -67 -18 -67 27 0 21 5 22 73 25 72 3 72 3 75 33 5 40 -15 103 -36 113 -28
15 -75 20 -110 12z m66 -82 c3 -25 0 -28 -27 -28 -36 0 -46 13 -31 40 17 31
54 23 58 -12z"/>
<path d="M1050 1940 c0 -16 5 -32 10 -35 6 -3 10 -37 10 -75 0 -38 -4 -72 -10
-75 -5 -3 -10 -19 -10 -36 0 -29 1 -29 55 -29 54 0 55 0 55 29 0 17 -4 33 -10
36 -11 7 -13 67 -4 103 4 12 17 25 30 28 20 5 24 13 24 43 l0 36 -75 2 -75 3
0 -30z"/>
<path d="M1230 1941 c0 -17 5 -33 10 -36 6 -3 10 -37 10 -75 0 -38 -4 -72 -10
-75 -5 -3 -10 -19 -10 -36 0 -29 1 -29 55 -29 54 0 55 0 55 29 0 17 -4 33 -10
36 -6 3 -10 52 -10 111 l0 104 -45 0 c-43 0 -45 -1 -45 -29z"/>
<path d="M1680 1946 c0 -14 5 -28 10 -31 6 -3 10 -42 10 -85 0 -43 -4 -82 -10
-85 -5 -3 -10 -17 -10 -31 0 -23 3 -24 56 -24 l57 0 -7 46 c-3 26 -6 89 -6
140 l0 94 -50 0 c-46 0 -50 -2 -50 -24z"/>
<path d="M1855 1829 l0 -139 53 0 c48 0 52 2 52 23 0 13 -5 28 -10 33 -6 6
-10 43 -8 85 l3 74 30 0 30 0 5 -105 5 -105 43 -3 44 -3 -6 68 c-20 218 -15
210 -147 211 l-94 1 0 -140z"/>
<path d="M315 1814 l0 -126 67 4 c94 5 103 16 103 124 0 108 -14 124 -109 124
l-61 0 0 -126z m113 4 c-3 -67 -5 -73 -25 -76 -22 -3 -23 0 -23 72 0 75 0 76
25 76 26 0 26 -1 23 -72z"/>
<path d="M552 1864 c-19 -13 -22 -24 -22 -75 0 -84 10 -99 66 -99 55 0 84 14
84 40 0 25 -38 27 -55 3 -7 -9 -19 -14 -29 -10 -22 9 -21 47 2 48 83 4 77 1
76 43 -1 25 -8 44 -20 53 -24 18 -75 16 -102 -3z m76 -41 c2 -8 -6 -13 -22
-13 -17 0 -26 5 -26 16 0 19 41 16 48 -3z"/>
<path d="M1160 1635 c0 -8 7 -15 15 -15 8 0 15 7 15 15 0 8 -7 15 -15 15 -8 0
-15 -7 -15 -15z"/>
<path d="M971 1623 c-13 -25 -2 -121 15 -127 20 -8 26 9 14 39 -7 18 -7 33 0
46 8 13 7 25 0 39 -13 24 -17 25 -29 3z"/>
<path d="M312 1598 c-20 -20 -14 -37 18 -53 17 -9 30 -18 30 -21 0 -3 -13 -3
-30 1 -38 8 -43 -20 -5 -29 59 -15 91 43 34 63 -17 6 -28 15 -24 21 5 8 11 7
21 -1 12 -9 18 -9 27 0 9 9 9 14 -3 21 -21 13 -54 12 -68 -2z"/>
<path d="M423 1603 c-18 -7 -16 -33 2 -33 8 0 15 5 15 10 0 6 7 10 15 10 26 0
16 -21 -14 -31 -59 -21 -41 -67 25 -65 l39 2 -4 44 c-1 25 -7 51 -13 58 -10
12 -42 15 -65 5z m47 -68 c0 -8 -7 -15 -15 -15 -16 0 -20 12 -8 23 11 12 23 8
23 -8z"/>
<path d="M536 1553 c0 -45 4 -59 17 -61 12 -3 17 7 19 45 4 61 21 63 28 3 3
-31 10 -45 20 -45 11 0 15 12 15 44 0 26 5 46 13 48 8 3 12 -9 12 -41 0 -44
14 -67 30 -50 4 5 5 32 1 59 l-6 50 -75 3 -75 2 1 -57z"/>
<path d="M732 1598 c-20 -20 -15 -86 8 -98 25 -13 70 -3 70 17 0 11 -7 13 -31
8 -24 -5 -30 -4 -27 6 3 8 17 15 31 17 46 6 29 62 -18 62 -12 0 -26 -5 -33
-12z m42 -29 c-3 -5 -10 -7 -15 -3 -5 3 -7 10 -3 15 3 5 10 7 15 3 5 -3 7 -10
3 -15z"/>
<path d="M835 1553 c2 -45 6 -59 18 -61 14 -3 17 6 17 48 0 65 23 64 30 -1 3
-30 10 -44 20 -44 11 0 14 10 11 45 -4 57 -15 70 -60 70 l-37 0 1 -57z"/>
<path d="M1037 1563 c3 -27 11 -52 18 -58 14 -12 75 -14 75 -2 0 4 0 30 0 57
0 42 -3 50 -19 50 -16 0 -18 -6 -13 -45 4 -37 2 -45 -12 -45 -12 0 -16 10 -16
45 0 37 -3 45 -19 45 -16 0 -18 -6 -14 -47z"/>
<path d="M1162 1550 c1 -53 3 -60 21 -60 17 0 19 5 13 31 -3 17 -6 44 -6 60 0
19 -5 29 -14 29 -12 0 -15 -14 -14 -60z"/>
<path d="M1227 1553 c1 -43 5 -59 17 -61 11 -3 16 8 18 45 4 61 21 63 28 3 3
-31 10 -45 20 -45 11 0 14 10 11 45 -4 57 -15 70 -60 70 l-36 0 2 -57z"/>
<path d="M1990 1503 c-19 -8 -47 -24 -61 -34 -35 -25 -57 -24 -86 3 -30 28
-135 34 -141 7 -2 -12 7 -15 47 -15 38 0 56 -6 74 -22 31 -29 70 -28 115 3 20
14 60 32 87 40 28 9 57 20 65 25 25 16 -60 10 -100 -7z"/>
<path d="M1457 1465 c-44 -17 -156 -102 -190 -146 -29 -37 -93 -56 -117 -34
-9 8 -59 20 -111 26 -88 12 -98 11 -162 -10 -56 -19 -73 -21 -99 -12 -44 15
-78 50 -78 78 0 20 -5 23 -36 23 -28 0 -37 -5 -41 -20 -3 -11 -15 -22 -27 -24
-19 -4 -34 -5 -113 -8 -35 -1 -142 29 -161 45 -9 7 -22 28 -30 47 -12 27 -17
31 -20 17 -11 -50 34 -95 125 -123 27 -8 57 -21 67 -29 19 -14 19 -16 3 -50
-9 -20 -17 -45 -17 -56 0 -30 26 -73 62 -104 27 -23 38 -26 72 -21 53 9 86 42
93 94 5 40 5 41 -35 53 -49 14 -68 8 -84 -26 -9 -21 -9 -29 4 -41 14 -14 17
-13 36 11 24 30 52 28 52 -3 0 -24 -27 -48 -63 -57 -34 -9 -70 13 -93 57 -34
66 23 158 98 158 22 0 48 5 60 11 16 9 23 7 35 -11 18 -26 87 -60 123 -60 14
0 54 9 88 20 73 23 88 19 66 -15 -9 -13 -16 -44 -16 -68 -1 -36 7 -55 45 -111
57 -83 71 -131 63 -214 -9 -87 -28 -121 -97 -171 -61 -44 -69 -58 -45 -67 25
-10 72 24 141 100 89 101 113 179 83 278 -15 51 8 104 49 114 57 12 56 11 49
68 -5 46 -3 55 17 73 12 11 29 30 37 42 20 30 133 119 167 132 18 7 30 6 37
-1 14 -14 33 -12 40 5 5 14 -18 46 -32 44 -4 0 -24 -7 -45 -14z"/>
<path d="M2321 1098 c1 -17 3 -18 6 -6 3 11 17 18 41 21 l37 4 -42 1 c-39 2
-43 0 -42 -20z"/>
<path d="M2333 1053 c-7 -2 -12 -14 -12 -26 1 -17 2 -18 6 -4 4 16 33 23 72
18 7 -2 10 2 6 8 -6 11 -50 14 -72 4z"/>
<path d="M2334 972 c7 -12 76 -14 76 -2 0 5 -18 10 -41 10 -22 0 -38 -4 -35
-8z"/>
<path d="M2363 912 c-10 -11 -25 -22 -33 -25 -10 -4 -7 -6 8 -6 12 -1 22 4 22
9 0 6 10 14 22 19 13 5 17 10 10 15 -6 3 -19 -2 -29 -12z"/>
<path d="M2333 823 c9 -2 25 -2 35 0 9 3 1 5 -18 5 -19 0 -27 -2 -17 -5z"/>
<path d="M2370 801 c0 -5 -12 -12 -27 -14 -26 -4 -26 -4 5 -6 22 -1 32 3 32
14 0 8 -2 15 -5 15 -3 0 -5 -4 -5 -9z"/>
<path d="M2350 750 c-23 -7 -23 -8 -3 -9 12 -1 25 4 28 9 3 6 5 10 3 9 -2 -1
-14 -5 -28 -9z"/>
<path d="M2342 717 c-8 -9 -3 -12 19 -12 34 0 35 1 10 14 -13 8 -22 7 -29 -2z"/>
<path d="M2360 680 c-23 -7 -23 -8 -3 -9 12 -1 25 4 28 9 3 6 5 10 3 9 -2 -1
-14 -5 -28 -9z"/>
<path d="M2340 646 c0 -2 13 -6 29 -8 17 -2 28 -1 25 4 -5 8 -54 12 -54 4z"/>
<path d="M2375 610 c-3 -5 -1 -10 4 -10 6 0 11 5 11 10 0 6 -2 10 -4 10 -3 0
-8 -4 -11 -10z"/>
<path d="M2360 560 c-13 -8 -12 -10 3 -10 9 0 17 5 17 10 0 12 -1 12 -20 0z"/>
<path d="M2391 529 c-13 -5 -22 -11 -20 -13 7 -7 59 6 59 15 0 11 -8 11 -39
-2z"/>
<path d="M2406 487 c-11 -8 -16 -20 -13 -28 4 -11 6 -11 6 2 1 9 11 21 24 27
12 6 17 11 11 11 -5 1 -18 -5 -28 -12z"/>
<path d="M2421 449 c-13 -5 -21 -12 -18 -15 3 -3 18 1 34 10 31 17 21 20 -16
5z"/>
<path d="M2454 418 l-19 -23 23 19 c21 18 27 26 19 26 -2 0 -12 -10 -23 -22z"/>
<path d="M2486 404 c-3 -9 -6 -21 -5 -27 0 -7 4 -2 9 11 5 12 17 22 26 22 13
0 15 -6 10 -27 -5 -23 -4 -25 5 -10 6 10 8 25 5 33 -7 19 -42 18 -50 -2z"/>
</g>
</svg>
